<mxfile host="app.diagrams.net" modified="2023-06-06T15:23:33.171Z" agent="Mozilla/5.0 (Windows NT 10.0; Win64; x64) AppleWebKit/537.36 (KHTML, like Gecko) Chrome/114.0.0.0 Safari/537.36" version="21.3.7" etag="XjuhZedBOG_NAvGqd9m8" type="github">
  <diagram name="第 1 页" id="EHXTolBYuzt5w7eDIZGG">
    <mxGraphModel>
      <root>
        <mxCell id="0" />
        <mxCell id="1" parent="0" />
      </root>
    </mxGraphModel>
  </diagram>
</mxfile>
